MeshVersionFormatted 2
dimension 2
Vertices 423
                   1                         0
                  -1                         0
                   0                         1
                   0                        -1
    0.99518472665026         0.098017140552305
    0.98078528030383          0.19509032251587
    0.95694033550243          0.29028467801193
    0.92387953208179          0.38268343340199
     0.8819212636904          0.47139673805694
    0.83146961136797          0.55557023441829
     0.7730104520842          0.63439328572155
    0.70710677957334          0.70710678279975
    0.63439328264696          0.77301045460745
    0.55557023162456          0.83146961323468
    0.47139673552211           0.8819212650453
    0.38268343123181          0.92387953298071
    0.29028467636829          0.95694033600103
    0.19509032141457          0.98078528052289
   0.098017140030234          0.99518472670168
  -0.098017140552305          0.99518472665026
   -0.19509032251587          0.98078528030383
   -0.29028467801193          0.95694033550243
   -0.38268343340199          0.92387953208179
   -0.47139673805694           0.8819212636904
   -0.55557023441829          0.83146961136797
   -0.63439328572155           0.7730104520842
   -0.70710678279975          0.70710677957334
   -0.77301045460745          0.63439328264696
   -0.83146961323468          0.55557023162456
    -0.8819212650453          0.47139673552211
   -0.92387953298071          0.38268343123181
   -0.95694033600103          0.29028467636829
   -0.98078528052289          0.19509032141457
   -0.99518472670168         0.098017140030234
   -0.99518472665026        -0.098017140552305
   -0.98078528030383         -0.19509032251587
   -0.95694033550243         -0.29028467801193
   -0.92387953208179         -0.38268343340199
    -0.8819212636904         -0.47139673805694
   -0.83146961136797         -0.55557023441829
    -0.7730104520842         -0.63439328572155
   -0.70710677957334         -0.70710678279975
   -0.63439328264696         -0.77301045460745
   -0.55557023162456         -0.83146961323468
   -0.47139673552211          -0.8819212650453
   -0.38268343123181         -0.92387953298071
   -0.29028467636829         -0.95694033600103
   -0.19509032141457         -0.98078528052289
  -0.098017140030234         -0.99518472670168
   0.098017140552305         -0.99518472665026
    0.19509032251587         -0.98078528030383
    0.29028467801193         -0.95694033550243
    0.38268343340199         -0.92387953208179
    0.47139673805694          -0.8819212636904
    0.55557023441829         -0.83146961136797
    0.63439328572155          -0.7730104520842
    0.70710678279975         -0.70710677957334
    0.77301045460745         -0.63439328264696
    0.83146961323468         -0.55557023162456
     0.8819212650453         -0.47139673552211
    0.92387953298071         -0.38268343123181
    0.95694033600103         -0.29028467636829
    0.98078528052289         -0.19509032141457
    0.99518472670168        -0.098017140030234
   -0.61279015008131         -0.67432563330066
    0.61269492609932          0.69201095566807
    0.68587668068263         -0.60851499480348
   -0.68132054705863          0.61755174778855
    0.91123555349933         0.045447431061985
  -0.031650559118008          0.92772904978759
   -0.91543267887632        -0.047380482885804
   0.041930937176334         -0.91627584513128
    0.84284568707562          0.38495297512746
   -0.38470373486332          0.82151673384013
   -0.81838565087698         -0.37977967206237
     0.3809912748208         -0.83935340571764
    0.85420705252188         -0.30114620768501
     0.3055844799041          0.85446468614784
   -0.86171966819447          0.29380242769636
   -0.31139004896087         -0.86228835542839
    0.77622805839658          -0.4751979396821
      0.469791071473          0.78379905324088
   -0.78600772613445          0.47318783180345
    0.88520814375993          0.22524846204005
   -0.21941987835179          0.88817913039952
    0.23117133574102         -0.88990034276558
    0.91431015611043         -0.12039705487795
    0.13301490471113          0.90564149417618
    0.73397726693322          0.54435464307564
   -0.54435464307564          0.73397726693322
   -0.90380885183403          0.13316524867115
    0.55418538571503         -0.75151107489483
   -0.88960559667795          -0.2275251741092
   -0.47321673645272         -0.78110069933611
   -0.13816931534781         -0.90244791904116
   -0.73704229983866         -0.56251372579438
     0.7886637028354          0.46322106665212
    0.69411029495511          0.45232817461371
    0.63752285916165          0.52951429493865
    0.59955499789433          0.44083422310353
    0.54041950335175          0.51780358160461
    0.50276049314401          0.42805168741624
    0.56284955217395          0.35073350007197
    0.46565053901017          0.33749840162487
    0.40550177122135          0.41505139649214
    0.36842341503887          0.32424017168628
     0.4285780491958           0.2467132204396
    0.33135136881534           0.2333978520194
    0.27119558183232          0.31093607088517
    0.23412492341042          0.22007572909841
    0.29428055399224          0.14254034076668
    0.19705443862168          0.12921316835719
    0.13689874584341          0.20674942045154
   0.099828363879491          0.11588537731727
    0.15998404005166         0.038349371600167
   0.062757994545183          0.02502115215213
  0.0026023134030226           0.1025572296978
  -0.034468047389377         0.011692880067784
   0.025687632315671        -0.065843176656268
  -0.071538407143789        -0.079171484856716
   -0.13169408725525        -0.001635422087419
  -0.011382727273307         -0.15670754412985
   -0.16876444629332        -0.092499797497193
   -0.22892012634857         -0.01496373546449
   -0.26599048526329         -0.10582811274629
    -0.3261461652796         -0.02829205114126
   -0.28907580640673         0.062572326648424
   -0.36321652417387         -0.11915642880428
   -0.30306084417267         -0.19669249020947
    -0.3863018452886         0.049244010449128
   -0.34923148641743          0.14010838818172
    -0.4002868830772         -0.21002080651636
   -0.34013120306981         -0.28755686792047
   -0.44645752526917          0.12678007187475
    -0.4093871664011          0.21764444957959
   -0.31216112756699           0.2309727659306
   -0.37231680753889          0.30850882729188
    -0.2750907687202            0.321837143654
   -0.48352788414776         0.035915694129769
   0.085843311603616         -0.14337922741044
   0.048772952532828         -0.23424360242891
     0.1459989914516         -0.22091528652616
    0.10892863254286         -0.31177966391005
    0.20615467142053          -0.2984513475636
    0.16908431254833          -0.3893157252509
    0.07185827366061         -0.40264404162487
    0.26631035141527         -0.37598740886072
     0.3033807102711         -0.28512303113874
    -0.3352464486948           0.3993732050117
   -0.23802040985812          0.41270152137656
    0.13201395368375         -0.48018010300297
   0.034787914790029          -0.4935084193909
    0.36353639022856         -0.36265909247961
    0.40060674907315         -0.27179471479205
   -0.43735724197673          -0.3008851842735
   -0.37720156189857           -0.378421245714
   -0.49751292199922         -0.22334912284947
    0.32646603141943         -0.45352347019844
   -0.54368356412798          0.11345175552329
   -0.46954284641089           0.2951805109233
   -0.58075392300727         0.022587377798071
   -0.29817608984549          0.49023758273749
   -0.20095005098684          0.50356589911305
   -0.14079437099837          0.42602983773407
   -0.10372401211545          0.51689421547373
   0.094943594814022         -0.57104448078785
 -0.0022824440781981         -0.58437279716534
    0.46076242902594          -0.3493307761152
    0.49783278786595          -0.2584663984442
    0.43767710791851         -0.18093033710466
    0.53490314673935         -0.16760202075798
  -0.062438124088067         -0.50683673577695
   -0.09950848295222         -0.59770111353707
    0.47474746677433        -0.090065959403646
     0.5719735055918        -0.076737643054661
   -0.24290516417465         -0.27422855155597
  -0.043568332129088           0.4393581540859
 -0.0064979732474869          0.53022253183145
   -0.39540212869629          0.47690926636459
  -0.066653653237181          0.60775859321992
   0.030572385631931          0.62108690956558
   0.090728065601961          0.54355084818392
   -0.53458328090164         -0.31421350064567
   -0.59473896094442         -0.23667743919973
    0.12779842448608          0.63441522590368
    -0.2611057309845            0.581101960487
    0.63212918556422         -0.15427370441287
     0.6691995444408        -0.063409326689493
    0.60904386446213         0.014126734691626
   -0.64090960297247          0.10012343918843
    0.55798846781192         -0.33600245976163
    0.52091810897461         -0.42686683739835
    0.18795410442421          0.55687916465579
   -0.15966416295362         -0.52016505216418
   -0.19673452181239         -0.61102942990683
    0.37752142796087          -0.1033942757464
   -0.21493508872994          0.24430108230539
   -0.03935280295299         -0.67523717492234
   -0.67797996187998        0.0092590614755528
    0.22502446331796          0.64774354225057
     0.7062699033378         0.027455051052182
    0.64611428395387          0.10499129568014
  -0.029583294350112          0.69862297096108
   -0.63180931985058         -0.32754181702843
   -0.57165363975284           -0.405077878466
    0.28518014324373          0.57020748102482
    0.54888841009507         0.091663130595207
     0.1508837458164          0.46601478708457
   -0.25689020180686         -0.53349336854342
   -0.29396056065778         -0.62435774627608
   -0.35411624064722         -0.54682168492061
   -0.12259380411126         -0.42930067438384
   -0.60383924410036           0.1909878168892
   -0.70106528290988          0.17765950056957
   -0.66399492404512          0.26852387823882
    0.19216963371958          -0.5577161644012
    0.15509927484083         -0.64858054219587
     0.2523253137566         -0.63525222581823
  -0.048453086342925         -0.24757191932658
  -0.080638691022356           0.3484937763627
    0.18306935034109         -0.13005090888662
   -0.12680933323648          0.68529465462165
   0.016587347853651          0.36182209272245
    0.41459178680435        -0.012529898042735
   -0.69196499990932         -0.25000575556465
    0.32225050214311          0.66107185856892
   -0.23224446154662         -0.70068317001263
    0.16486878337728          0.72527960359722
    0.72760479739444         -0.14023125828687
    0.69199312769671         -0.23169074412197
    0.74334027234406           0.1183194593536
    0.68318467435307          0.19585611055717
    0.61809707401295         -0.41351931617431
   -0.38907985447193         -0.63605156281387
   -0.45099115531407         -0.55987758464852
    0.38355446422985          0.58445136595539
    0.31736574799231        -0.025858214382075
   -0.52059824303713        -0.054948683614432
  -0.020483011000032          0.27095771502597
   -0.65489464092691         -0.15914137773561
    0.21505051648832         -0.72462528743055
     0.1176828703607         -0.73692062206601
   -0.74877173134036         -0.16987144142546
     0.5767167860486         -0.50262535213003
    0.48312158302768         -0.51743495729902
  -0.089444692491331          0.77401233523674
   0.009453390296236          0.78421190883545
    -0.6688796787449         -0.41840619486398
   -0.60456999528783         -0.49271940896528
     0.3117075274252         -0.70714608386315
    0.34942244156448         -0.62098354213059
    0.40623796660765         -0.69401532808089
    0.53805904668907         -0.59360053864192
   -0.18413653457443          0.75502285934674
   -0.49141582210194         -0.66924169246406
    0.42295291107549           0.6799581227611
    0.36025458297778          0.75371337046794
    0.78956100746788         -0.22165710573424
    0.75244054546333         -0.30934582707596
   -0.76515029357541          0.26062286435857
   -0.71701892385196           0.3437312855601
   -0.62573595185851          0.35900014687548
   -0.80867033002292          0.16899373768586
    0.80480890016928         0.039518555986012
   -0.79653903334578         -0.26415812140368
    0.67575737046117         -0.50320157416566
    0.78272888797135          0.20875979930486
    0.71963821297015          0.28414087253488
   -0.70240849580192          0.44018464992485
   -0.58985420638777          0.45025263349709
    0.52110834319148          0.68571332412143
    0.48236501081215          0.59752666147047
    0.28542514979182         -0.80061490149971
    0.65732463062601          0.36150685679633
    0.52579991696218          0.26001115630809
    0.44310979196612          0.50594968499265
    0.30826763379115           0.4017868147899
    0.39150694305864          0.15586527304686
    0.48873239532896          0.16918592220513
    0.17396918213252          0.29761273119072
    0.21103988576215          0.38847398615838
    0.35443620758615         0.065004971334668
    -0.3170458818127         -0.45595730716695
   -0.55061835866054         -0.57547826436972
   -0.51108877841696          -0.4823647203419
   -0.52950042418189          0.37265188739139
   -0.49259515052858          0.46357016908394
   -0.55012813469869          0.53845681429617
    0.65511096430235         -0.32263190079285
    0.26425561119264           0.7451437541913
    0.20098887482122          0.82421837087637
    0.10575051213698          0.80533646079072
    0.24322503029588         -0.20758696994062
    0.28937418741629         -0.54423112009775
    0.59499294666341         -0.24511120471525
   -0.27997552304158         -0.36509292932358
   -0.18274948414178         -0.35176461297955
   -0.50661320526362          0.20431613323958
   0.068143366929733          0.71149217994229
   -0.32132512672568         -0.70908867458691
   -0.13631877196479         -0.68836371834715
  -0.072988217399393         -0.76271099457035
    0.12291367301154        -0.052514886648126
    0.22923641170044           -0.466825665302
    -0.2058348052643         -0.18336417409524
   -0.43243396767522          0.38603231101113
   -0.19184976748337         0.075900642368171
  -0.094623727876331         0.089228948047902
   -0.15477940858051          0.16676501887774
   -0.16544298238633           -0.796430797111
    0.42357104235629         -0.44014577749315
     0.3864554461946         -0.53081907666186
  -0.025367765230646         -0.41597235800246
   -0.08552344524795         -0.33843629668162
   -0.73855989576753         0.086994214864235
   -0.77111328549026       -0.0015704721296655
   -0.55766860197922         -0.14581306139893
   -0.35833176987773          0.56777364406256
    -0.3211669879269          0.65794923400765
   -0.41637535046202          0.64247146736632
   -0.47435940392975         -0.39170802550156
   0.011702593652463         -0.32510798032908
   0.057815561671204         -0.66148814224225
   -0.21981984297797         -0.44262899076025
   -0.10860876626907         -0.17003585918143
   0.039672678351669          0.19342151853016
   -0.14567912524011         -0.26090023563673
   0.053657706766938          0.45268647049807
   -0.25200544753083          0.15343670405201
   -0.56653776597673           0.2817767289263
   -0.72903535881267         -0.34087013340982
    -0.1638796921116          0.59443027686104
    0.11381348269767          0.37514934984407
   -0.46044256308136         -0.13248474506817
   -0.41422159860972         -0.46925141723227
   -0.42337220416805         -0.04162036734154
    0.34045106911561         -0.19425865346681
    0.51181786322984       0.00079847407374011
    -0.1778647298803           0.3351654600216
   0.021121739925476          -0.7503580047654
   -0.45475767050483           0.5535271250188
   -0.52136045755849          0.63853998183408
    0.76416293898691        -0.049279435235345
   -0.22354822182824          0.67055023082453
    0.84166491191366          0.12902642242989
    0.34562059812442          0.49279830786245
    0.25721011624268          0.05167718449815
    0.45166226768383         0.078331312202145
   -0.28814057203567          0.75423919816181
    -0.6178242819437        -0.068276999953362
   -0.11770904984723          0.25762939831192
    0.44170953253375         -0.60580614683623
    0.28029538915296         -0.11672259218504
  -0.057553367591569          0.18009330474858
   0.076743070979813          0.28428547129415
   -0.71381004353854        -0.080755810383885
    0.22013971946537        -0.039186674333925
   -0.82027619742408        -0.086627609168787
    0.24815768519368          0.47936009026265
    0.62245931568267           0.2724627949088
    0.58586316606264          0.18236173504242
     0.7150877441015         -0.40009497550015
   -0.64785339507365         -0.57169757215101
    0.81107573273388          0.29826887058139
    0.86101578737976        -0.035677340375185
  -0.011280852321025         -0.83653223093266
   -0.83196758947621         0.072082103567423
   -0.38648611709393          0.73084979297963
   -0.64652143337386          0.52876034630211
    0.08029999329127         -0.82680446944754
   0.035715971489588          0.86783801925959
   -0.29992244819319          0.85425878614082
    0.81729403308488         -0.38997751944952
   -0.80544370079774          0.38080131801389
   -0.47435941416395          0.79142086696309
    0.46050608924679         -0.77631665236115
     0.6031023454472         -0.66900288054461
    0.67299168604835          0.61783874780813
   -0.61964328315233          0.68367100585582
   -0.78264675448035         -0.47922620132763
   -0.87707002969699         -0.30888621579783
   -0.12332634855747          0.91051936339499
    0.13724461582622         -0.90283062475464
   -0.90508958462649         -0.13747487062623
   -0.73678971170183          0.54160801501508
   -0.39830668517577         -0.82618917693641
    0.88809320274991         -0.21309271298897
   -0.91620657203739         0.042444124246231
   -0.88957454943341          0.21829523857448
    -0.5534772445815         -0.74582961858859
   -0.22698167821142          -0.8807311746159
    0.17756828561102         -0.81202091072792
    0.39703669925984          0.83816198987602
   -0.04970124200682         -0.91511905324833
    0.81901089768219         -0.12578255724511
    0.74316072458262         -0.55116555525818
   -0.26151272479062         -0.78549435959094
    0.57785038811078          0.60673459426856
   -0.40551910324954         -0.73045926582037
    0.75013047068722           0.3722242619376
    0.31411117435351         -0.88213770351343
    0.92266771373801          0.13686482683284
   -0.46858719647081          0.70745187521527
   -0.14896003499339           0.8311304060166
    0.22604535829301           0.9055813199351
    0.49672691344348         -0.68064438964846
    -0.6037947711684          0.60139597921535
    0.93634924473824        -0.041728820844277
   -0.83068333438591         -0.17374061127096
  -0.087516521892277          -0.8426481989807
   -0.85084558533607       -0.0012192639056215
   -0.74236225462843         -0.41676764262703
     0.5610667032815          0.75651087730717
    0.61513452540332         -0.57129288561137
  -0.058035378895729          0.84924018042183
    -0.3396107377805          -0.7827039664726
   -0.69303754216589         -0.49048102294097
   -0.69808501583079         -0.63255723575631
    0.36859484847379         -0.76078225566062
     0.8875545587966          0.31756753068694
   0.046665830006084          0.94340877426194
   -0.23329402825263           0.8164556768863
   -0.82963417308328          0.23343041065935
Triangles 780
377 253 406
95 310 391
257 78 290
79 260 374
65 255 284
92 377 406
260 261 374
265 75 331
94 255 390
255 94 399
290 78 291
269 83 374
75 265 381
261 269 374
349 74 368
74 349 372
258 387 395
310 95 410
391 310 397
255 65 390
22 23 372
256 82 257
60 61 373
30 31 374
387 87 395
83 269 385
269 369 385
82 256 271
65 284 363
77 258 259
264 69 345
67 266 414
266 67 396
91 263 389
342 90 379
97 98 400
228 290 291
370 383 392
253 377 414
252 376 406
23 74 372
85 22 372
358 71 384
258 77 387
78 257 393
389 263 423
81 60 373
61 77 373
83 30 374
31 79 374
228 291 292
399 386 416
272 236 276
292 247 299
273 76 419
76 273 401
84 267 345
376 252 419
94 386 399
99 378 398
263 91 367
73 97 400
266 81 362
80 391 397
257 82 393
66 271 398
101 272 276
271 272 398
291 88 292
256 236 272
69 264 365
382 404 415
228 292 299
342 379 407
383 86 392
368 74 375
267 84 364
268 364 400
71 358 411
268 267 364
376 92 406
345 69 402
87 365 395
70 382 415
378 66 398
271 256 272
274 103 360
268 274 360
100 103 274
105 276 346
276 236 346
105 102 276
232 360 361
279 278 348
207 202 361
232 268 360
207 279 348
107 278 279
275 107 279
104 107 275
279 207 361
360 275 361
277 105 346
202 232 361
106 105 277
278 111 282
278 282 348
108 111 278
280 281 333
277 346 359
281 208 333
281 277 359
280 109 281
111 112 347
282 111 347
205 249 285
318 320 341
249 284 285
341 320 342
10 11 89
55 56 92
25 26 90
286 160 306
156 283 296
156 321 335
40 41 96
160 286 330
1 5 69
3 20 70
191 233 289
179 287 306
298 160 330
2 35 71
287 286 306
115 303 357
4 50 72
113 280 355
294 251 312
297 296 324
205 285 321
283 156 335
288 341 342
296 283 324
8 9 73
112 115 347
23 24 74
216 294 304
251 252 352
53 54 76
191 289 295
321 285 335
117 326 354
6 7 84
21 22 85
179 318 341
51 52 86
212 297 324
135 160 298
294 158 304
38 39 75
134 135 298
171 169 295
36 37 93
226 257 290
297 212 314
110 109 280
187 171 295
233 192 244
287 179 341
309 197 329
169 191 295
258 230 259
59 60 81
191 168 192
260 215 261
158 294 312
14 15 82
229 187 230
226 256 257
192 168 311
214 213 215
314 219 327
191 192 233
233 244 266
29 30 83
218 251 294
280 333 355
160 137 306
307 309 329
134 131 135
133 156 296
118 117 308
151 216 304
218 250 251
190 159 213
144 148 293
226 236 256
148 147 153
261 262 269
229 230 258
144 147 148
214 215 260
200 226 290
239 351 354
144 145 147
221 142 293
200 206 226
230 187 295
142 143 144
115 116 303
142 144 293
159 134 298
190 213 214
228 200 290
301 227 310
251 250 252
130 131 134
116 119 303
216 218 294
259 230 289
247 203 299
213 159 298
140 142 221
326 239 354
130 127 131
149 179 306
219 325 327
140 141 142
154 153 168
210 234 300
121 118 308
205 248 249
289 230 295
169 168 191
149 162 179
261 215 262
185 193 200
133 155 156
181 182 185
135 131 136
135 137 160
185 200 228
219 314 322
167 152 172
172 152 313
227 210 300
195 210 227
124 121 307
167 172 173
297 314 327
195 209 210
173 194 195
307 308 309
129 133 176
123 125 305
183 205 321
181 178 182
307 121 308
129 132 133
168 153 311
125 129 305
166 152 167
245 192 311
119 140 303
126 124 127
176 133 296
148 153 154
183 204 205
212 172 313
213 298 330
302 301 310
165 177 178
137 149 306
188 229 343
195 227 301
139 134 159
136 131 329
269 262 270
189 202 207
210 211 234
173 172 194
126 127 130
220 164 339
127 124 307
180 178 181
152 146 313
312 251 352
197 136 329
188 187 229
123 121 124
347 115 357
116 114 117
123 305 325
238 317 334
119 122 140
195 194 209
120 118 121
135 136 137
185 228 299
226 206 236
262 215 330
185 182 193
165 164 177
177 164 220
234 235 255
153 158 311
286 262 330
270 287 288
200 193 206
151 146 152
125 124 126
179 162 318
314 313 322
173 195 301
153 147 158
176 296 297
325 305 327
161 159 190
177 220 223
116 117 118
181 185 299
311 158 312
240 184 317
246 203 247
334 128 336
142 141 143
210 209 211
113 110 280
318 319 320
175 171 187
144 143 145
154 168 169
163 164 165
146 143 322
120 121 123
223 220 239
239 220 351
293 148 337
129 176 305
225 184 240
133 132 155
140 122 141
57 58 67
212 313 314
112 113 114
308 117 354
182 178 328
130 134 139
125 128 129
151 166 216
214 260 263
140 221 303
189 207 338
141 219 322
129 128 132
205 204 248
12 13 66
143 141 322
219 122 325
156 155 321
141 122 219
194 172 212
313 146 322
112 114 115
127 307 329
170 169 171
317 157 334
232 267 268
198 301 302
216 217 218
234 211 235
165 178 180
225 240 243
27 28 68
145 146 151
115 114 116
119 118 120
112 110 113
123 124 125
117 114 326
151 152 166
163 150 164
203 181 299
215 213 330
167 173 198
238 334 336
114 113 326
211 209 283
145 151 304
178 177 328
244 192 245
218 241 250
120 123 325
237 224 282
170 171 174
131 127 329
177 223 328
116 118 119
125 126 128
202 231 232
119 120 122
145 143 146
208 182 328
216 166 217
170 174 196
137 136 138
137 138 149
163 165 332
138 136 197
180 181 203
255 235 284
189 201 202
166 167 323
198 173 301
193 182 208
209 194 324
176 297 327
283 209 324
184 157 317
154 169 170
305 176 327
122 120 325
221 293 353
270 286 287
194 212 324
111 110 112
165 180 332
147 145 304
155 157 183
154 170 337
196 174 224
128 126 336
270 262 286
253 245 352
196 224 237
126 130 336
245 312 352
130 139 336
148 154 337
240 317 350
245 311 312
326 113 355
149 138 150
183 184 204
243 240 356
174 171 175
162 150 163
139 159 161
328 223 333
175 187 188
162 163 186
149 150 162
190 214 315
201 188 343
155 132 157
242 217 323
44 45 94
225 243 265
204 184 225
139 238 336
183 157 184
155 183 321
218 217 241
241 217 242
250 241 273
351 309 354
202 201 231
214 263 315
217 166 323
132 128 334
232 231 267
208 328 333
175 188 189
338 207 348
186 163 332
248 204 331
189 188 201
170 196 337
231 201 264
222 246 254
284 235 285
162 186 318
180 222 332
164 150 339
197 309 351
167 198 323
180 203 222
161 190 199
222 203 246
157 132 334
211 283 335
244 245 253
139 161 238
204 225 331
138 197 339
318 186 319
224 174 338
288 287 341
225 265 331
199 190 315
198 302 340
235 211 335
158 147 304
150 138 339
223 239 355
240 350 356
174 175 338
236 206 346
199 315 316
319 186 344
175 189 338
239 326 355
237 282 347
220 339 351
282 224 348
285 235 335
264 201 343
222 254 344
186 332 344
224 338 348
61 62 77
293 337 353
323 198 340
16 17 78
337 196 353
303 221 357
31 32 79
319 344 349
231 264 345
332 222 344
267 231 345
221 353 357
317 238 350
339 197 351
242 323 340
108 110 111
309 308 354
109 277 281
196 237 353
238 161 350
344 254 349
350 199 356
46 47 80
161 199 350
333 223 355
353 237 357
63 64 87
18 19 88
33 34 91
42 43 65
199 316 356
48 49 95
243 356 358
237 347 357
208 281 359
356 316 358
109 106 277
108 109 110
193 208 359
346 206 359
206 193 359
107 108 278
108 106 109
107 106 108
104 106 107
104 105 106
103 104 275
104 102 105
103 275 360
275 279 361
103 102 104
102 101 276
100 102 103
100 101 102
100 99 101
98 100 274
259 289 362
233 266 362
289 233 362
98 99 100
77 259 373
377 67 414
247 292 371
412 380 417
364 73 400
260 79 423
98 89 99
315 263 367
265 93 381
81 266 396
284 249 363
319 349 368
368 375 403
270 288 369
93 265 409
76 376 419
264 343 365
370 72 383
340 302 366
316 315 367
86 273 392
380 96 417
273 241 392
99 89 378
340 366 370
366 72 370
320 319 368
269 270 369
365 87 408
242 340 370
229 258 395
227 300 397
358 384 409
90 342 403
292 88 371
98 274 400
331 75 412
291 78 405
88 291 405
234 255 399
259 362 373
365 343 395
97 89 98
362 81 373
242 370 392
253 352 406
265 243 409
266 244 414
250 273 419
96 363 417
369 68 385
302 310 410
358 316 411
56 57 377
11 12 378
26 27 379
57 67 377
12 66 378
27 68 379
10 89 97
25 90 375
55 92 376
92 56 377
89 11 378
90 26 379
73 9 97
74 24 375
76 54 376
40 96 380
75 39 380
38 75 381
21 85 382
93 37 381
9 10 97
24 25 375
54 55 376
51 86 383
37 38 381
36 93 384
20 21 382
39 40 380
50 51 383
35 36 384
29 83 385
28 29 385
70 20 382
68 28 385
2 71 388
71 35 384
72 50 383
45 46 386
62 63 387
32 33 389
43 44 390
47 48 391
94 45 386
34 2 388
77 62 387
44 94 390
79 32 389
46 80 386
63 87 387
80 47 391
33 91 389
65 43 390
48 95 391
91 34 388
241 242 392
371 70 415
82 15 393
16 78 393
369 288 407
367 91 388
84 345 402
15 16 393
101 99 398
300 399 416
4 72 394
95 49 394
59 81 396
67 58 396
363 249 417
49 4 394
343 229 395
58 59 396
273 86 401
310 227 397
53 76 401
86 52 401
68 369 407
72 366 394
6 84 402
69 5 402
272 101 398
247 371 415
78 17 405
18 88 405
342 320 403
82 271 413
271 66 413
363 96 418
1 69 408
87 64 408
70 371 421
14 82 413
66 13 413
96 41 418
42 65 418
3 70 421
88 19 421
8 73 420
84 7 420
65 363 418
69 365 408
73 364 420
364 84 420
300 234 399
274 268 400
52 53 401
288 342 407
371 88 421
95 394 410
5 6 402
320 368 403
382 85 404
394 366 410
254 246 404
17 18 405
352 252 406
404 246 415
349 254 422
64 1 408
384 93 409
243 358 409
397 300 416
248 331 412
13 14 413
244 253 414
248 412 417
246 247 415
249 248 417
367 388 411
41 42 418
252 250 419
7 8 420
19 3 421
263 260 423
404 85 422
375 90 403
75 380 412
366 302 410
388 71 411
316 367 411
379 68 407
79 389 423
372 349 422
386 80 416
254 404 422
80 397 416
85 372 422
