 MeshVersionFormatted 2
 Dimension 3
 Vertices 423
 1.000000 0.000000 0.000000 1
 -1.000000 0.000000 0.000000 1
 0.000000 1.000000 0.000000 1
 0.000000 -1.000000 0.000000 1
 0.995185 0.098017 0.000000 1
 0.980785 0.195090 0.000000 1
 0.956940 0.290285 0.000000 1
 0.000000 0.000000 0.000000 1
 0.000000 0.000000 0.000000 1
 0.000000 0.000000 0.000000 1
 0.773010 0.634393 0.000000 1
 0.707107 0.707107 0.000000 1
 0.634393 0.773010 0.000000 1
 0.555570 0.831470 0.000000 1
 0.471397 0.881921 0.000000 1
 0.382683 0.923880 0.000000 1
 0.290285 0.956940 0.000000 1
 0.195090 0.980785 0.000000 1
 0.098017 0.995185 0.000000 1
 -0.098017 0.995185 0.000000 1
 -0.195090 0.980785 0.000000 1
 -0.290285 0.956940 0.000000 1
 -0.382683 0.923880 0.000000 1
 -0.471397 0.881921 0.000000 1
 -0.555570 0.831470 0.000000 1
 -0.634393 0.773010 0.000000 1
 -0.707107 0.707107 0.000000 1
 -0.773010 0.634393 0.000000 1
 -0.831470 0.555570 0.000000 1
 -0.881921 0.471397 0.000000 1
 -0.923880 0.382683 0.000000 1
 -0.956940 0.290285 0.000000 1
 -0.980785 0.195090 0.000000 1
 -0.995185 0.098017 0.000000 1
 -0.995185 -0.098017 0.000000 1
 -0.980785 -0.195090 0.000000 1
 -0.956940 -0.290285 0.000000 1
 -0.923880 -0.382683 0.000000 1
 -0.881921 -0.471397 0.000000 1
 -0.831470 -0.555570 0.000000 1
 -0.773010 -0.634393 0.000000 1
 -0.707107 -0.707107 0.000000 1
 -0.634393 -0.773010 0.000000 1
 -0.555570 -0.831470 0.000000 1
 -0.471397 -0.881921 0.000000 1
 -0.382683 -0.923880 0.000000 1
 -0.290285 -0.956940 0.000000 1
 -0.195090 -0.980785 0.000000 1
 -0.098017 -0.995185 0.000000 1
 0.098017 -0.995185 0.000000 1
 0.195090 -0.980785 0.000000 1
 0.290285 -0.956940 0.000000 1
 0.382683 -0.923880 0.000000 1
 0.471397 -0.881921 0.000000 1
 0.555570 -0.831470 0.000000 1
 0.634393 -0.773010 0.000000 1
 0.707107 -0.707107 0.000000 1
 0.773010 -0.634393 0.000000 1
 0.831470 -0.555570 0.000000 1
 0.881921 -0.471397 0.000000 1
 0.923880 -0.382683 0.000000 1
 0.956940 -0.290285 0.000000 1
 0.980785 -0.195090 0.000000 1
 0.995185 -0.098017 0.000000 1
 -0.612790 -0.674326 0.000000 1
 0.612695 0.692011 0.000000 1
 0.685877 -0.608515 0.000000 1
 -0.681321 0.617552 0.000000 1
 0.911236 0.045447 0.000000 1
 -0.031651 0.927729 0.000000 1
 -0.915433 -0.047380 0.000000 1
 0.041931 -0.916276 0.000000 1
 0.842846 0.384953 0.000000 1
 -0.384704 0.821517 0.000000 1
 -0.818386 -0.379780 0.000000 1
 0.380991 -0.839353 0.000000 1
 0.854207 -0.301146 0.000000 1
 0.305584 0.854465 0.000000 1
 -0.861720 0.293802 0.000000 1
 -0.311390 -0.862288 0.000000 1
 0.776228 -0.475198 0.000000 1
 0.469791 0.783799 0.000000 1
 -0.786008 0.473188 0.000000 1
 0.885208 0.225248 0.000000 1
 -0.219420 0.888179 0.000000 1
 0.231171 -0.889900 0.000000 1
 0.914310 -0.120397 0.000000 1
 0.133015 0.905641 0.000000 1
 0.733977 0.544355 0.000000 1
 -0.544355 0.733977 0.000000 1
 -0.903809 0.133165 0.000000 1
 0.554185 -0.751511 0.000000 1
 -0.889606 -0.227525 0.000000 1
 -0.473217 -0.781101 0.000000 1
 -0.138169 -0.902448 0.000000 1
 -0.737042 -0.562514 0.000000 1
 0.788664 0.463221 0.000000 1
 0.694110 0.452328 0.000000 1
 0.637523 0.529514 0.000000 1
 0.599555 0.440834 0.000000 1
 0.540420 0.517804 0.000000 1
 0.502760 0.428052 0.000000 1
 0.562850 0.350734 0.000000 1
 0.465651 0.337498 0.000000 1
 0.405502 0.415051 0.000000 1
 0.368423 0.324240 0.000000 1
 0.428578 0.246713 0.000000 1
 0.331351 0.233398 0.000000 1
 0.271196 0.310936 0.000000 1
 0.234125 0.220076 0.000000 1
 0.294281 0.142540 0.000000 1
 0.197054 0.129213 0.000000 1
 0.136899 0.206749 0.000000 1
 0.099828 0.115885 0.000000 1
 0.159984 0.038349 0.000000 1
 0.062758 0.025021 0.000000 1
 0.002602 0.102557 0.000000 1
 -0.034468 0.011693 0.000000 1
 0.025688 -0.065843 0.000000 1
 -0.071538 -0.079171 0.000000 1
 -0.131694 -0.001635 0.000000 1
 -0.011383 -0.156708 0.000000 1
 -0.168764 -0.092500 0.000000 1
 -0.228920 -0.014964 0.000000 1
 -0.265990 -0.105828 0.000000 1
 -0.326146 -0.028292 0.000000 1
 -0.289076 0.062572 0.000000 1
 -0.363217 -0.119156 0.000000 1
 -0.303061 -0.196692 0.000000 1
 -0.386302 0.049244 0.000000 1
 -0.349231 0.140108 0.000000 1
 -0.400287 -0.210021 0.000000 1
 -0.340131 -0.287557 0.000000 1
 -0.446458 0.126780 0.000000 1
 -0.409387 0.217644 0.000000 1
 -0.312161 0.230973 0.000000 1
 -0.372317 0.308509 0.000000 1
 -0.275091 0.321837 0.000000 1
 -0.483528 0.035916 0.000000 1
 0.085843 -0.143379 0.000000 1
 0.048773 -0.234244 0.000000 1
 0.145999 -0.220915 0.000000 1
 0.108929 -0.311780 0.000000 1
 0.206155 -0.298451 0.000000 1
 0.169084 -0.389316 0.000000 1
 0.071858 -0.402644 0.000000 1
 0.266310 -0.375987 0.000000 1
 0.303381 -0.285123 0.000000 1
 -0.335246 0.399373 0.000000 1
 -0.238020 0.412702 0.000000 1
 0.132014 -0.480180 0.000000 1
 0.034788 -0.493508 0.000000 1
 0.363536 -0.362659 0.000000 1
 0.400607 -0.271795 0.000000 1
 -0.437357 -0.300885 0.000000 1
 -0.377202 -0.378421 0.000000 1
 -0.497513 -0.223349 0.000000 1
 0.326466 -0.453523 0.000000 1
 -0.543684 0.113452 0.000000 1
 -0.469543 0.295181 0.000000 1
 -0.580754 0.022587 0.000000 1
 -0.298176 0.490238 0.000000 1
 -0.200950 0.503566 0.000000 1
 -0.140794 0.426030 0.000000 1
 -0.103724 0.516894 0.000000 1
 0.094944 -0.571044 0.000000 1
 -0.002282 -0.584373 0.000000 1
 0.460762 -0.349331 0.000000 1
 0.497833 -0.258466 0.000000 1
 0.437677 -0.180930 0.000000 1
 0.534903 -0.167602 0.000000 1
 -0.062438 -0.506837 0.000000 1
 -0.099508 -0.597701 0.000000 1
 0.474747 -0.090066 0.000000 1
 0.571974 -0.076738 0.000000 1
 -0.242905 -0.274229 0.000000 1
 -0.043568 0.439358 0.000000 1
 -0.006498 0.530223 0.000000 1
 -0.395402 0.476909 0.000000 1
 -0.066654 0.607759 0.000000 1
 0.030572 0.621087 0.000000 1
 0.090728 0.543551 0.000000 1
 -0.534583 -0.314214 0.000000 1
 -0.594739 -0.236677 0.000000 1
 0.127798 0.634415 0.000000 1
 -0.261106 0.581102 0.000000 1
 0.632129 -0.154274 0.000000 1
 0.669200 -0.063409 0.000000 1
 0.609044 0.014127 0.000000 1
 -0.640910 0.100123 0.000000 1
 0.557988 -0.336002 0.000000 1
 0.520918 -0.426867 0.000000 1
 0.187954 0.556879 0.000000 1
 -0.159664 -0.520165 0.000000 1
 -0.196735 -0.611029 0.000000 1
 0.377521 -0.103394 0.000000 1
 -0.214935 0.244301 0.000000 1
 -0.039353 -0.675237 0.000000 1
 -0.677980 0.009259 0.000000 1
 0.225024 0.647744 0.000000 1
 0.706270 0.027455 0.000000 1
 0.646114 0.104991 0.000000 1
 -0.029583 0.698623 0.000000 1
 -0.631809 -0.327542 0.000000 1
 -0.571654 -0.405078 0.000000 1
 0.285180 0.570207 0.000000 1
 0.548888 0.091663 0.000000 1
 0.150884 0.466015 0.000000 1
 -0.256890 -0.533493 0.000000 1
 -0.293961 -0.624358 0.000000 1
 -0.354116 -0.546822 0.000000 1
 -0.122594 -0.429301 0.000000 1
 -0.603839 0.190988 0.000000 1
 -0.701065 0.177660 0.000000 1
 -0.663995 0.268524 0.000000 1
 0.192170 -0.557716 0.000000 1
 0.155099 -0.648581 0.000000 1
 0.252325 -0.635252 0.000000 1
 -0.048453 -0.247572 0.000000 1
 -0.080639 0.348494 0.000000 1
 0.183069 -0.130051 0.000000 1
 -0.126809 0.685295 0.000000 1
 0.016587 0.361822 0.000000 1
 0.414592 -0.012530 0.000000 1
 -0.691965 -0.250006 0.000000 1
 0.322251 0.661072 0.000000 1
 -0.232244 -0.700683 0.000000 1
 0.164869 0.725280 0.000000 1
 0.727605 -0.140231 0.000000 1
 0.691993 -0.231691 0.000000 1
 0.743340 0.118319 0.000000 1
 0.683185 0.195856 0.000000 1
 0.618097 -0.413519 0.000000 1
 -0.389080 -0.636052 0.000000 1
 -0.450991 -0.559878 0.000000 1
 0.383554 0.584451 0.000000 1
 0.317366 -0.025858 0.000000 1
 -0.520598 -0.054949 0.000000 1
 -0.020483 0.270958 0.000000 1
 -0.654895 -0.159141 0.000000 1
 0.215051 -0.724625 0.000000 1
 0.117683 -0.736921 0.000000 1
 -0.748772 -0.169871 0.000000 1
 0.576717 -0.502625 0.000000 1
 0.483122 -0.517435 0.000000 1
 -0.089445 0.774012 0.000000 1
 0.009453 0.784212 0.000000 1
 -0.668880 -0.418406 0.000000 1
 -0.604570 -0.492719 0.000000 1
 0.311708 -0.707146 0.000000 1
 0.349422 -0.620984 0.000000 1
 0.406238 -0.694015 0.000000 1
 0.538059 -0.593601 0.000000 1
 -0.184137 0.755023 0.000000 1
 -0.491416 -0.669242 0.000000 1
 0.422953 0.679958 0.000000 1
 0.360255 0.753713 0.000000 1
 0.789561 -0.221657 0.000000 1
 0.752441 -0.309346 0.000000 1
 -0.765150 0.260623 0.000000 1
 -0.717019 0.343731 0.000000 1
 -0.625736 0.359000 0.000000 1
 -0.808670 0.168994 0.000000 1
 0.804809 0.039519 0.000000 1
 -0.796539 -0.264158 0.000000 1
 0.675757 -0.503202 0.000000 1
 0.782729 0.208760 0.000000 1
 0.719638 0.284141 0.000000 1
 -0.702408 0.440185 0.000000 1
 -0.589854 0.450253 0.000000 1
 0.521108 0.685713 0.000000 1
 0.482365 0.597527 0.000000 1
 0.285425 -0.800615 0.000000 1
 0.657325 0.361507 0.000000 1
 0.525800 0.260011 0.000000 1
 0.443110 0.505950 0.000000 1
 0.308268 0.401787 0.000000 1
 0.391507 0.155865 0.000000 1
 0.488732 0.169186 0.000000 1
 0.173969 0.297613 0.000000 1
 0.211040 0.388474 0.000000 1
 0.354436 0.065005 0.000000 1
 -0.317046 -0.455957 0.000000 1
 -0.550618 -0.575478 0.000000 1
 -0.511089 -0.482365 0.000000 1
 -0.529500 0.372652 0.000000 1
 -0.492595 0.463570 0.000000 1
 -0.550128 0.538457 0.000000 1
 0.655111 -0.322632 0.000000 1
 0.264256 0.745144 0.000000 1
 0.200989 0.824218 0.000000 1
 0.105751 0.805336 0.000000 1
 0.243225 -0.207587 0.000000 1
 0.289374 -0.544231 0.000000 1
 0.594993 -0.245111 0.000000 1
 -0.279976 -0.365093 0.000000 1
 -0.182749 -0.351765 0.000000 1
 -0.506613 0.204316 0.000000 1
 0.068143 0.711492 0.000000 1
 -0.321325 -0.709089 0.000000 1
 -0.136319 -0.688364 0.000000 1
 -0.072988 -0.762711 0.000000 1
 0.122914 -0.052515 0.000000 1
 0.229236 -0.466826 0.000000 1
 -0.205835 -0.183364 0.000000 1
 -0.432434 0.386032 0.000000 1
 -0.191850 0.075901 0.000000 1
 -0.094624 0.089229 0.000000 1
 -0.154779 0.166765 0.000000 1
 -0.165443 -0.796431 0.000000 1
 0.423571 -0.440146 0.000000 1
 0.386455 -0.530819 0.000000 1
 -0.025368 -0.415972 0.000000 1
 -0.085523 -0.338436 0.000000 1
 -0.738560 0.086994 0.000000 1
 -0.771113 -0.001570 0.000000 1
 -0.557669 -0.145813 0.000000 1
 -0.358332 0.567774 0.000000 1
 -0.321167 0.657949 0.000000 1
 -0.416375 0.642471 0.000000 1
 -0.474359 -0.391708 0.000000 1
 0.011703 -0.325108 0.000000 1
 0.057816 -0.661488 0.000000 1
 -0.219820 -0.442629 0.000000 1
 -0.108609 -0.170036 0.000000 1
 0.039673 0.193422 0.000000 1
 -0.145679 -0.260900 0.000000 1
 0.053658 0.452686 0.000000 1
 -0.252005 0.153437 0.000000 1
 -0.566538 0.281777 0.000000 1
 -0.729035 -0.340870 0.000000 1
 -0.163880 0.594430 0.000000 1
 0.113813 0.375149 0.000000 1
 -0.460443 -0.132485 0.000000 1
 -0.414222 -0.469251 0.000000 1
 -0.423372 -0.041620 0.000000 1
 0.340451 -0.194259 0.000000 1
 0.511818 0.000798 0.000000 1
 -0.177865 0.335165 0.000000 1
 0.021122 -0.750358 0.000000 1
 -0.454758 0.553527 0.000000 1
 -0.521360 0.638540 0.000000 1
 0.764163 -0.049279 0.000000 1
 -0.223548 0.670550 0.000000 1
 0.841665 0.129026 0.000000 1
 0.345621 0.492798 0.000000 1
 0.257210 0.051677 0.000000 1
 0.451662 0.078331 0.000000 1
 -0.288141 0.754239 0.000000 1
 -0.617824 -0.068277 0.000000 1
 -0.117709 0.257629 0.000000 1
 0.441710 -0.605806 0.000000 1
 0.280295 -0.116723 0.000000 1
 -0.057553 0.180093 0.000000 1
 0.076743 0.284285 0.000000 1
 -0.713810 -0.080756 0.000000 1
 0.220140 -0.039187 0.000000 1
 -0.820276 -0.086628 0.000000 1
 0.248158 0.479360 0.000000 1
 0.622459 0.272463 0.000000 1
 0.585863 0.182362 0.000000 1
 0.715088 -0.400095 0.000000 1
 -0.647853 -0.571698 0.000000 1
 0.811076 0.298269 0.000000 1
 0.861016 -0.035677 0.000000 1
 -0.011281 -0.836532 0.000000 1
 -0.831968 0.072082 0.000000 1
 -0.386486 0.730850 0.000000 1
 -0.646521 0.528760 0.000000 1
 0.080300 -0.826804 0.000000 1
 0.035716 0.867838 0.000000 1
 -0.299922 0.854259 0.000000 1
 0.817294 -0.389978 0.000000 1
 -0.805444 0.380801 0.000000 1
 -0.474359 0.791421 0.000000 1
 0.460506 -0.776317 0.000000 1
 0.603102 -0.669003 0.000000 1
 0.672992 0.617839 0.000000 1
 -0.619643 0.683671 0.000000 1
 -0.782647 -0.479226 0.000000 1
 -0.877070 -0.308886 0.000000 1
 -0.123326 0.910519 0.000000 1
 0.137245 -0.902831 0.000000 1
 -0.905090 -0.137475 0.000000 1
 -0.736790 0.541608 0.000000 1
 -0.398307 -0.826189 0.000000 1
 0.888093 -0.213093 0.000000 1
 -0.916207 0.042444 0.000000 1
 -0.889575 0.218295 0.000000 1
 -0.553477 -0.745830 0.000000 1
 -0.226982 -0.880731 0.000000 1
 0.177568 -0.812021 0.000000 1
 0.397037 0.838162 0.000000 1
 -0.049701 -0.915119 0.000000 1
 0.819011 -0.125783 0.000000 1
 0.743161 -0.551166 0.000000 1
 -0.261513 -0.785494 0.000000 1
 0.577850 0.606735 0.000000 1
 -0.405519 -0.730459 0.000000 1
 0.750130 0.372224 0.000000 1
 0.314111 -0.882138 0.000000 1
 0.922668 0.136865 0.000000 1
 -0.468587 0.707452 0.000000 1
 -0.148960 0.831130 0.000000 1
 0.226045 0.905581 0.000000 1
 0.496727 -0.680644 0.000000 1
 -0.603795 0.601396 0.000000 1
 0.936349 -0.041729 0.000000 1
 -0.830683 -0.173741 0.000000 1
 -0.087517 -0.842648 0.000000 1
 -0.850846 -0.001219 0.000000 1
 -0.742362 -0.416768 0.000000 1
 0.561067 0.756511 0.000000 1
 0.615135 -0.571293 0.000000 1
 -0.058035 0.849240 0.000000 1
 -0.339611 -0.782704 0.000000 1
 -0.693038 -0.490481 0.000000 1
 -0.698085 -0.632557 0.000000 1
 0.368595 -0.760782 0.000000 1
 0.887555 0.317568 0.000000 1
 0.046666 0.943409 0.000000 1
 -0.233294 0.816456 0.000000 1
 -0.829634 0.233430 0.000000 1
 Triangles 780
 376  252  405  1
 94  309  390  1
 256  77  289  1
 78  259  373  1
 64  254  283  1
 91  376  405  1
 259  260  373  1
 264  74  330  1
 93  254  389  1
 254  93  398  1
 289  77  290  1
 268  82  373  1
 74  264  380  1
 260  268  373  1
 348  73  367  1
 73  348  371  1
 257  386  394  1
 309  94  409  1
 390  309  396  1
 254  64  389  1
 21  22  371  1
 255  81  256  1
 59  60  372  1
 29  30  373  1
 386  86  394  1
 82  268  384  1
 268  368  384  1
 81  255  270  1
 64  283  362  1
 76  257  258  1
 263  68  344  1
 66  265  413  1
 265  66  395  1
 90  262  388  1
 341  89  378  1
 96  97  399  1
 227  289  290  1
 369  382  391  1
 252  376  413  1
 251  375  405  1
 22  73  371  1
 84  21  371  1
 357  70  383  1
 257  76  386  1
 77  256  392  1
 388  262  422  1
 80  59  372  1
 60  76  372  1
 82  29  373  1
 30  78  373  1
 227  290  291  1
 398  385  415  1
 271  235  275  1
 291  246  298  1
 272  75  418  1
 75  272  400  1
 83  266  344  1
 375  251  418  1
 93  385  398  1
 98  377  397  1
 262  90  366  1
 72  96  399  1
 265  80  361  1
 79  390  396  1
 256  81  392  1
 65  270  397  1
 100  271  275  1
 270  271  397  1
 290  87  291  1
 255  235  271  1
 68  263  364  1
 381  403  414  1
 227  291  298  1
 341  378  406  1
 382  85  391  1
 367  73  374  1
 266  83  363  1
 267  363  399  1
 70  357  410  1
 267  266  363  1
 375  91  405  1
 344  68  401  1
 86  364  394  1
 69  381  414  1
 377  65  397  1
 270  255  271  1
 273  102  359  1
 267  273  359  1
 99  102  273  1
 104  275  345  1
 275  235  345  1
 104  101  275  1
 231  359  360  1
 278  277  347  1
 206  201  360  1
 231  267  359  1
 206  278  347  1
 106  277  278  1
 274  106  278  1
 103  106  274  1
 278  206  360  1
 359  274  360  1
 276  104  345  1
 201  231  360  1
 105  104  276  1
 277  110  281  1
 277  281  347  1
 107  110  277  1
 279  280  332  1
 276  345  358  1
 280  207  332  1
 280  276  358  1
 279  108  280  1
 110  111  346  1
 281  110  346  1
 204  248  284  1
 317  319  340  1
 248  283  284  1
 340  319  341  1
 9  10  88  1
 54  55  91  1
 24  25  89  1
 285  159  305  1
 155  282  295  1
 155  320  334  1
 39  40  95  1
 159  285  329  1
 0  4  68  1
 2  19  69  1
 190  232  288  1
 178  286  305  1
 297  159  329  1
 1  34  70  1
 286  285  305  1
 114  302  356  1
 3  49  71  1
 112  279  354  1
 293  250  311  1
 296  295  323  1
 204  284  320  1
 282  155  334  1
 287  340  341  1
 295  282  323  1
 7  8  72  1
 111  114  346  1
 22  23  73  1
 215  293  303  1
 250  251  351  1
 52  53  75  1
 190  288  294  1
 320  284  334  1
 116  325  353  1
 5  6  83  1
 20  21  84  1
 178  317  340  1
 50  51  85  1
 211  296  323  1
 134  159  297  1
 293  157  303  1
 37  38  74  1
 133  134  297  1
 170  168  294  1
 35  36  92  1
 225  256  289  1
 296  211  313  1
 109  108  279  1
 186  170  294  1
 232  191  243  1
 286  178  340  1
 308  196  328  1
 168  190  294  1
 257  229  258  1
 58  59  80  1
 190  167  191  1
 259  214  260  1
 157  293  311  1
 13  14  81  1
 228  186  229  1
 225  255  256  1
 191  167  310  1
 213  212  214  1
 313  218  326  1
 190  191  232  1
 232  243  265  1
 28  29  82  1
 217  250  293  1
 279  332  354  1
 159  136  305  1
 306  308  328  1
 133  130  134  1
 132  155  295  1
 117  116  307  1
 150  215  303  1
 217  249  250  1
 189  158  212  1
 143  147  292  1
 225  235  255  1
 147  146  152  1
 260  261  268  1
 228  229  257  1
 143  146  147  1
 213  214  259  1
 199  225  289  1
 238  350  353  1
 143  144  146  1
 220  141  292  1
 199  205  225  1
 229  186  294  1
 141  142  143  1
 114  115  302  1
 141  143  292  1
 158  133  297  1
 189  212  213  1
 227  199  289  1
 300  226  309  1
 250  249  251  1
 129  130  133  1
 115  118  302  1
 215  217  293  1
 258  229  288  1
 246  202  298  1
 212  158  297  1
 139  141  220  1
 325  238  353  1
 129  126  130  1
 148  178  305  1
 218  324  326  1
 139  140  141  1
 153  152  167  1
 209  233  299  1
 120  117  307  1
 204  247  248  1
 288  229  294  1
 168  167  190  1
 148  161  178  1
 260  214  261  1
 184  192  199  1
 132  154  155  1
 180  181  184  1
 134  130  135  1
 134  136  159  1
 184  199  227  1
 218  313  321  1
 166  151  171  1
 171  151  312  1
 226  209  299  1
 194  209  226  1
 123  120  306  1
 166  171  172  1
 296  313  326  1
 194  208  209  1
 172  193  194  1
 306  307  308  1
 128  132  175  1
 122  124  304  1
 182  204  320  1
 180  177  181  1
 306  120  307  1
 128  131  132  1
 167  152  310  1
 124  128  304  1
 165  151  166  1
 244  191  310  1
 118  139  302  1
 125  123  126  1
 175  132  295  1
 147  152  153  1
 182  203  204  1
 211  171  312  1
 212  297  329  1
 301  300  309  1
 164  176  177  1
 136  148  305  1
 187  228  342  1
 194  226  300  1
 138  133  158  1
 135  130  328  1
 268  261  269  1
 188  201  206  1
 209  210  233  1
 172  171  193  1
 125  126  129  1
 219  163  338  1
 126  123  306  1
 179  177  180  1
 151  145  312  1
 311  250  351  1
 196  135  328  1
 187  186  228  1
 122  120  123  1
 346  114  356  1
 115  113  116  1
 122  304  324  1
 237  316  333  1
 118  121  139  1
 194  193  208  1
 119  117  120  1
 134  135  136  1
 184  227  298  1
 225  205  235  1
 261  214  329  1
 184  181  192  1
 164  163  176  1
 176  163  219  1
 233  234  254  1
 152  157  310  1
 285  261  329  1
 269  286  287  1
 199  192  205  1
 150  145  151  1
 124  123  125  1
 178  161  317  1
 313  312  321  1
 172  194  300  1
 152  146  157  1
 175  295  296  1
 324  304  326  1
 160  158  189  1
 176  219  222  1
 115  116  117  1
 180  184  298  1
 310  157  311  1
 239  183  316  1
 245  202  246  1
 333  127  335  1
 141  140  142  1
 209  208  210  1
 112  109  279  1
 317  318  319  1
 174  170  186  1
 143  142  144  1
 153  167  168  1
 162  163  164  1
 145  142  321  1
 119  120  122  1
 222  219  238  1
 238  219  350  1
 292  147  336  1
 128  175  304  1
 224  183  239  1
 132  131  154  1
 139  121  140  1
 56  57  66  1
 211  312  313  1
 111  112  113  1
 307  116  353  1
 181  177  327  1
 129  133  138  1
 124  127  128  1
 150  165  215  1
 213  259  262  1
 139  220  302  1
 188  206  337  1
 140  218  321  1
 128  127  131  1
 204  203  247  1
 11  12  65  1
 142  140  321  1
 218  121  324  1
 155  154  320  1
 140  121  218  1
 193  171  211  1
 312  145  321  1
 111  113  114  1
 126  306  328  1
 169  168  170  1
 316  156  333  1
 231  266  267  1
 197  300  301  1
 215  216  217  1
 233  210  234  1
 164  177  179  1
 224  239  242  1
 26  27  67  1
 144  145  150  1
 114  113  115  1
 118  117  119  1
 111  109  112  1
 122  123  124  1
 116  113  325  1
 150  151  165  1
 162  149  163  1
 202  180  298  1
 214  212  329  1
 166  172  197  1
 237  333  335  1
 113  112  325  1
 210  208  282  1
 144  150  303  1
 177  176  327  1
 243  191  244  1
 217  240  249  1
 119  122  324  1
 236  223  281  1
 169  170  173  1
 130  126  328  1
 176  222  327  1
 115  117  118  1
 124  125  127  1
 201  230  231  1
 118  119  121  1
 144  142  145  1
 207  181  327  1
 215  165  216  1
 169  173  195  1
 136  135  137  1
 136  137  148  1
 162  164  331  1
 137  135  196  1
 179  180  202  1
 254  234  283  1
 188  200  201  1
 165  166  322  1
 197  172  300  1
 192  181  207  1
 208  193  323  1
 175  296  326  1
 282  208  323  1
 183  156  316  1
 153  168  169  1
 304  175  326  1
 121  119  324  1
 220  292  352  1
 269  285  286  1
 193  211  323  1
 110  109  111  1
 164  179  331  1
 146  144  303  1
 154  156  182  1
 153  169  336  1
 195  173  223  1
 127  125  335  1
 269  261  285  1
 252  244  351  1
 195  223  236  1
 125  129  335  1
 244  311  351  1
 129  138  335  1
 147  153  336  1
 239  316  349  1
 244  310  311  1
 325  112  354  1
 148  137  149  1
 182  183  203  1
 242  239  355  1
 173  170  174  1
 161  149  162  1
 138  158  160  1
 327  222  332  1
 174  186  187  1
 161  162  185  1
 148  149  161  1
 189  213  314  1
 200  187  342  1
 154  131  156  1
 241  216  322  1
 43  44  93  1
 224  242  264  1
 203  183  224  1
 138  237  335  1
 182  156  183  1
 154  182  320  1
 217  216  240  1
 240  216  241  1
 249  240  272  1
 350  308  353  1
 201  200  230  1
 213  262  314  1
 216  165  322  1
 131  127  333  1
 231  230  266  1
 207  327  332  1
 174  187  188  1
 337  206  347  1
 185  162  331  1
 247  203  330  1
 188  187  200  1
 169  195  336  1
 230  200  263  1
 221  245  253  1
 283  234  284  1
 161  185  317  1
 179  221  331  1
 163  149  338  1
 196  308  350  1
 166  197  322  1
 179  202  221  1
 160  189  198  1
 221  202  245  1
 156  131  333  1
 210  282  334  1
 243  244  252  1
 138  160  237  1
 203  224  330  1
 137  196  338  1
 317  185  318  1
 223  173  337  1
 287  286  340  1
 224  264  330  1
 198  189  314  1
 197  301  339  1
 234  210  334  1
 157  146  303  1
 149  137  338  1
 222  238  354  1
 239  349  355  1
 173  174  337  1
 235  205  345  1
 198  314  315  1
 318  185  343  1
 174  188  337  1
 238  325  354  1
 236  281  346  1
 219  338  350  1
 281  223  347  1
 284  234  334  1
 263  200  342  1
 221  253  343  1
 185  331  343  1
 223  337  347  1
 60  61  76  1
 292  336  352  1
 322  197  339  1
 15  16  77  1
 336  195  352  1
 302  220  356  1
 30  31  78  1
 318  343  348  1
 230  263  344  1
 331  221  343  1
 266  230  344  1
 220  352  356  1
 316  237  349  1
 338  196  350  1
 241  322  339  1
 107  109  110  1
 308  307  353  1
 108  276  280  1
 195  236  352  1
 237  160  349  1
 343  253  348  1
 349  198  355  1
 45  46  79  1
 160  198  349  1
 332  222  354  1
 352  236  356  1
 62  63  86  1
 17  18  87  1
 32  33  90  1
 41  42  64  1
 198  315  355  1
 47  48  94  1
 242  355  357  1
 236  346  356  1
 207  280  358  1
 355  315  357  1
 108  105  276  1
 107  108  109  1
 192  207  358  1
 345  205  358  1
 205  192  358  1
 106  107  277  1
 107  105  108  1
 106  105  107  1
 103  105  106  1
 103  104  105  1
 102  103  274  1
 103  101  104  1
 102  274  359  1
 274  278  360  1
 102  101  103  1
 101  100  275  1
 99  101  102  1
 99  100  101  1
 99  98  100  1
 97  99  273  1
 258  288  361  1
 232  265  361  1
 288  232  361  1
 97  98  99  1
 76  258  372  1
 376  66  413  1
 246  291  370  1
 411  379  416  1
 363  72  399  1
 259  78  422  1
 97  88  98  1
 314  262  366  1
 264  92  380  1
 80  265  395  1
 283  248  362  1
 318  348  367  1
 367  374  402  1
 269  287  368  1
 92  264  408  1
 75  375  418  1
 263  342  364  1
 369  71  382  1
 339  301  365  1
 315  314  366  1
 85  272  391  1
 379  95  416  1
 272  240  391  1
 98  88  377  1
 339  365  369  1
 365  71  369  1
 319  318  367  1
 268  269  368  1
 364  86  407  1
 241  339  369  1
 228  257  394  1
 226  299  396  1
 357  383  408  1
 89  341  402  1
 291  87  370  1
 97  273  399  1
 330  74  411  1
 290  77  404  1
 87  290  404  1
 233  254  398  1
 258  361  372  1
 364  342  394  1
 96  88  97  1
 361  80  372  1
 241  369  391  1
 252  351  405  1
 264  242  408  1
 265  243  413  1
 249  272  418  1
 95  362  416  1
 368  67  384  1
 301  309  409  1
 357  315  410  1
 55  56  376  1
 10  11  377  1
 25  26  378  1
 56  66  376  1
 11  65  377  1
 26  67  378  1
 9  88  96  1
 24  89  374  1
 54  91  375  1
 91  55  376  1
 88  10  377  1
 89  25  378  1
 72  8  96  1
 73  23  374  1
 75  53  375  1
 39  95  379  1
 74  38  379  1
 37  74  380  1
 20  84  381  1
 92  36  380  1
 8  9  96  1
 23  24  374  1
 53  54  375  1
 50  85  382  1
 36  37  380  1
 35  92  383  1
 19  20  381  1
 38  39  379  1
 49  50  382  1
 34  35  383  1
 28  82  384  1
 27  28  384  1
 69  19  381  1
 67  27  384  1
 1  70  387  1
 70  34  383  1
 71  49  382  1
 44  45  385  1
 61  62  386  1
 31  32  388  1
 42  43  389  1
 46  47  390  1
 93  44  385  1
 33  1  387  1
 76  61  386  1
 43  93  389  1
 78  31  388  1
 45  79  385  1
 62  86  386  1
 79  46  390  1
 32  90  388  1
 64  42  389  1
 47  94  390  1
 90  33  387  1
 240  241  391  1
 370  69  414  1
 81  14  392  1
 15  77  392  1
 368  287  406  1
 366  90  387  1
 83  344  401  1
 14  15  392  1
 100  98  397  1
 299  398  415  1
 3  71  393  1
 94  48  393  1
 58  80  395  1
 66  57  395  1
 362  248  416  1
 48  3  393  1
 342  228  394  1
 57  58  395  1
 272  85  400  1
 309  226  396  1
 52  75  400  1
 85  51  400  1
 67  368  406  1
 71  365  393  1
 5  83  401  1
 68  4  401  1
 271  100  397  1
 246  370  414  1
 77  16  404  1
 17  87  404  1
 341  319  402  1
 81  270  412  1
 270  65  412  1
 362  95  417  1
 0  68  407  1
 86  63  407  1
 69  370  420  1
 13  81  412  1
 65  12  412  1
 95  40  417  1
 41  64  417  1
 2  69  420  1
 87  18  420  1
 7  72  419  1
 83  6  419  1
 64  362  417  1
 68  364  407  1
 72  363  419  1
 363  83  419  1
 299  233  398  1
 273  267  399  1
 51  52  400  1
 287  341  406  1
 370  87  420  1
 94  393  409  1
 4  5  401  1
 319  367  402  1
 381  84  403  1
 393  365  409  1
 253  245  403  1
 16  17  404  1
 351  251  405  1
 403  245  414  1
 348  253  421  1
 63  0  407  1
 383  92  408  1
 242  357  408  1
 396  299  415  1
 247  330  411  1
 12  13  412  1
 243  252  413  1
 247  411  416  1
 245  246  414  1
 248  247  416  1
 366  387  410  1
 40  41  417  1
 251  249  418  1
 6  7  419  1
 18  2  420  1
 262  259  422  1
 403  84  421  1
 374  89  402  1
 74  379  411  1
 365  301  409  1
 387  70  410  1
 315  366  410  1
 378  67  406  1
 78  388  422  1
 371  348  421  1
 385  79  415  1
 253  403  421  1
 79  396  415  1
 84  371  421  1
 End
